<?xml version="1.0" encoding="UTF-8"?>
<svg width="120px" height="86px" viewBox="0 0 120 86" version="1.1" xmlns="http://www.w3.org/2000/svg" xmlns:xlink="http://www.w3.org/1999/xlink">
    <!-- Generator: Sketch 43.1 (39012) - http://www.bohemiancoding.com/sketch -->
    <title>logo</title>
    <desc>Created with Sketch.</desc>
    <defs></defs>
    <g id="Page-1" stroke="none" stroke-width="1" fill="none" fill-rule="evenodd" opacity="0.304064764">
        <g id="logo" transform="translate(-10.000000, 2.000000)" fill-rule="nonzero" fill="#F2D600">
            <path d="M61.8669777,8.82374763 C78.6056264,-4.19913635 102.53323,-2.2132536 116.895964,13.3909043 C131.258698,28.9950622 131.258698,53.0049339 116.895964,68.6090919 C102.53323,84.2132498 78.6056264,86.1991325 61.8669777,73.1762486" id="Shape" stroke="#F2D600" stroke-width="3" fill-opacity="0"></path>
            <g id="Group" transform="translate(0.331978, 8.823748)">
                <g id="Rectangle-path" fill-opacity="0">
                    <rect x="0" y="0" width="123.07" height="64.3525009"></rect>
                </g>
                <g transform="translate(10.000000, 3.000000)" id="Shape">
                    <g>
                        <g>
                            <path d="M5.825,41.97 L5.825,22.39 L39.655,22.39 L39.655,21.23 L43.995,21.23 L43.995,37.01 C43.995,38.37 43.5116667,39.5366667 42.545,40.51 C41.5716667,41.4833333 40.405,41.97 39.045,41.97 L39.045,41.97 L5.825,41.97 Z M10.125,26.73 L10.125,37.62 L39.045,37.62 C39.4516667,37.62 39.655,37.4166667 39.655,37.01 L39.655,37.01 L39.655,26.73 L10.125,26.73 Z M42.025,13.42 L42.025,17.77 L7.975,17.77 L7.975,13.42 L42.025,13.42 Z M49.065,12.87 L45.375,15.18 L38.715,4.89 L13.645,4.89 L13.645,0.55 L41.085,0.55 L49.065,12.87 Z M8.745,0 L12.815,1.59 C12.0416667,3.49666667 11.125,5.32333333 10.065,7.07 C9.005,8.81 7.96833333,10.35 6.955,11.69 C5.94833333,13.03 5.07833333,14.11 4.345,14.93 C3.61166667,15.7566667 3.20833333,16.2066667 3.135,16.28 L3.135,16.28 L0.005,13.31 C0.005,13.31 0.331666667,12.9333333 0.985,12.18 C1.65166667,11.4266667 2.45166667,10.4366667 3.385,9.21 C4.31833333,7.98333333 5.27833333,6.57333333 6.265,4.98 C7.25833333,3.38666667 8.085,1.72666667 8.745,0 L8.745,0 Z M63.415,9.95 L63.415,9.95 C62.8283333,11.2366667 62.1416667,12.5933333 61.355,14.02 C60.5683333,15.4533333 59.6416667,16.9233333 58.575,18.43 L58.575,18.43 L55.055,15.89 C56.375,14.0566667 57.475,12.26 58.355,10.5 C59.235,8.74 59.9483333,7.16333333 60.495,5.77 C61.0483333,4.37666667 61.445,3.25 61.685,2.39 C61.9183333,1.53 62.035,1.1 62.035,1.1 L62.035,1.1 L66.225,2.03 C66.225,2.10333333 66.1416667,2.45333333 65.975,3.08 C65.8083333,3.70666667 65.5416667,4.55 65.175,5.61 L65.175,5.61 L78.485,5.61 L78.485,0.33 L82.835,0.33 L82.835,5.61 L101.255,5.61 L101.255,9.95 L82.835,9.95 L82.835,20.9 L98.725,20.9 L98.725,25.19 L82.835,25.19 L82.835,38.06 L103.075,38.06 L103.075,42.4 L56.645,42.4 L56.645,38.06 L78.485,38.06 L78.485,25.19 L61.765,25.19 L61.765,20.9 L78.485,20.9 L78.485,9.95 L63.415,9.95 Z"></path>
                        </g>
                    </g>
                    <g transform="translate(6.230000, 49.400002)">
                        <g>
                            <path d="M0.0025,6.8925 L0.0025,6.0425 L1.0825,6.0425 L1.0825,6.6525 C1.0825,7.5925 1.51916667,8.0625 2.3925,8.0625 L2.3925,8.0625 C3.29916667,8.0625 3.7525,7.5625 3.7525,6.5625 L3.7525,6.5625 L3.7525,0.2325 L4.9225,0.2325 L4.9225,6.5125 C4.88916667,8.10583333 4.0625,8.91916667 2.4425,8.9525 L2.4425,8.9525 C0.909166667,8.91916667 0.0958333333,8.2325 0.0025,6.8925 L0.0025,6.8925 Z M12.3725,5.6225 L12.3725,0.2325 L13.5425,0.2325 L13.5425,5.7625 C13.4491667,7.82916667 12.2791667,8.8925 10.0325,8.9525 L10.0325,8.9525 C7.93916667,8.8925 6.84583333,7.8925 6.7525,5.9525 L6.7525,5.9525 L6.7525,0.2325 L7.9225,0.2325 L7.9225,5.6225 C7.95583333,7.18916667 8.67583333,7.98583333 10.0825,8.0125 L10.0825,8.0125 C11.6091667,7.98583333 12.3725,7.18916667 12.3725,5.6225 L12.3725,5.6225 Z M21.6125,2.7225 L21.6125,2.7225 L20.5325,2.7225 C20.4725,1.62916667 19.7525,1.04916667 18.3725,0.9825 L18.3725,0.9825 C17.0925,1.01583333 16.4525,1.51583333 16.4525,2.4825 L16.4525,2.4825 C16.4525,3.10916667 16.7958333,3.46916667 17.4825,3.5625 L17.4825,3.5625 L19.9225,4.1225 C21.2025,4.43583333 21.8425,5.21916667 21.8425,6.4725 L21.8425,6.4725 C21.8091667,8.06583333 20.6858333,8.8925 18.4725,8.9525 L18.4725,8.9525 C17.2525,8.9525 16.3925,8.7025 15.8925,8.2025 L15.8925,8.2025 C15.2658333,7.73583333 14.9691667,7.01583333 15.0025,6.0425 L15.0025,6.0425 L16.1225,6.0425 C16.1558333,7.35583333 16.9391667,8.02916667 18.4725,8.0625 L18.4725,8.0625 C19.9725,8.02916667 20.7358333,7.54583333 20.7625,6.6125 L20.7625,6.6125 C20.8891667,5.82583333 20.2658333,5.30916667 18.8925,5.0625 L18.8925,5.0625 L17.1125,4.6825 C15.8925,4.3425 15.2825,3.65583333 15.2825,2.6225 L15.2825,2.6225 C15.3758333,0.935833333 16.3758333,0.0625 18.2825,0.0025 L18.2825,0.0025 C20.4358333,0.0025 21.5458333,0.909166667 21.6125,2.7225 Z M25.5025,1.2225 L22.5925,1.2225 L22.5925,0.2325 L29.5325,0.2325 L29.5325,1.2225 L26.6225,1.2225 L26.6225,8.8125 L25.5025,8.8125 L25.5025,1.2225 Z M37.1225,1.1725 L35.0625,1.1725 L35.0625,3.8425 L37.1225,3.8425 C38.3425,3.87583333 38.9358333,3.40583333 38.9025,2.4325 L38.9025,2.4325 C38.9025,1.5925 38.3091667,1.1725 37.1225,1.1725 L37.1225,1.1725 Z M37.5925,8.8125 L33.8925,8.8125 L33.8925,0.2325 L37.6925,0.2325 C39.2191667,0.299166667 40.0158333,1.01916667 40.0825,2.3925 L40.0825,2.3925 C40.0825,3.2325 39.7058333,3.82583333 38.9525,4.1725 L38.9525,4.1725 C40.0125,4.54583333 40.5425,5.24916667 40.5425,6.2825 L40.5425,6.2825 C40.4491667,7.90916667 39.4658333,8.7525 37.5925,8.8125 L37.5925,8.8125 Z M37.3125,4.8325 L35.0625,4.8325 L35.0625,7.8325 L37.5425,7.8325 C38.7358333,7.79916667 39.3458333,7.2825 39.3725,6.2825 L39.3725,6.2825 C39.3725,5.31583333 38.6858333,4.8325 37.3125,4.8325 L37.3125,4.8325 Z M43.1725,7.7825 L48.3325,7.7825 L48.3325,8.8125 L42.0025,8.8125 L42.0025,0.2325 L48.2325,0.2325 L48.2325,1.2225 L43.1725,1.2225 L43.1725,3.8925 L47.8625,3.8925 L47.8625,4.9225 L43.1725,4.9225 L43.1725,7.7825 Z M56.2525,5.2025 L53.6225,5.2025 L53.6225,4.2225 L57.3725,4.2225 L57.3725,8.8125 L56.6225,8.8125 L56.3425,7.7325 C55.6891667,8.5125 54.7525,8.91916667 53.5325,8.9525 L53.5325,8.9525 C52.3725,8.9525 51.4825,8.65583333 50.8625,8.0625 L50.8625,8.0625 C49.9225,7.18916667 49.4691667,5.98583333 49.5025,4.4525 L49.5025,4.4525 C49.7225,1.60583333 51.0825,0.1225 53.5825,0.0025 L53.5825,0.0025 C55.7025,0.1225 56.9191667,1.05916667 57.2325,2.8125 L57.2325,2.8125 L56.1125,2.8125 C55.7991667,1.62583333 54.9391667,1.01583333 53.5325,0.9825 L53.5325,0.9825 C51.7525,1.10916667 50.8158333,2.2825 50.7225,4.5025 L50.7225,4.5025 C50.7225,6.87583333 51.6758333,8.0625 53.5825,8.0625 L53.5825,8.0625 C54.2691667,8.0625 54.8625,7.87583333 55.3625,7.5025 L55.3625,7.5025 C55.9825,7.0025 56.2791667,6.23583333 56.2525,5.2025 L56.2525,5.2025 Z M59.3425,0.2325 L60.5125,0.2325 L60.5125,8.8125 L59.3425,8.8125 L59.3425,0.2325 Z M63.8925,0.2325 L68.2025,7.1725 L68.2025,0.2325 L69.3325,0.2325 L69.3325,8.8125 L68.0125,8.8125 L63.6525,1.8725 L63.6125,1.8725 L63.6125,8.8125 L62.4825,8.8125 L62.4825,0.2325 L63.8925,0.2325 Z M71.2925,0.2325 L72.4725,0.2325 L72.4725,8.8125 L71.2925,8.8125 L71.2925,0.2325 Z M75.8425,0.2325 L80.1525,7.1725 L80.1525,0.2325 L81.2825,0.2325 L81.2825,8.8125 L79.9725,8.8125 L75.6125,1.8725 L75.5625,1.8725 L75.5625,8.8125 L74.4425,8.8125 L74.4425,0.2325 L75.8425,0.2325 Z M89.4825,5.2025 L86.8625,5.2025 L86.8625,4.2225 L90.6125,4.2225 L90.6125,8.8125 L89.8625,8.8125 L89.5825,7.7325 C88.9225,8.5125 87.9825,8.91916667 86.7625,8.9525 L86.7625,8.9525 C85.6091667,8.9525 84.7191667,8.65583333 84.0925,8.0625 L84.0925,8.0625 C83.1591667,7.18916667 82.7058333,5.98583333 82.7325,4.4525 L82.7325,4.4525 C82.9525,1.60583333 84.3125,0.1225 86.8125,0.0025 L86.8125,0.0025 C88.9391667,0.1225 90.1591667,1.05916667 90.4725,2.8125 L90.4725,2.8125 L89.3425,2.8125 C89.0291667,1.62583333 88.1691667,1.01583333 86.7625,0.9825 L86.7625,0.9825 C84.9825,1.10916667 84.0458333,2.2825 83.9525,4.5025 L83.9525,4.5025 C83.9525,6.87583333 84.9058333,8.0625 86.8125,8.0625 L86.8125,8.0625 C87.4991667,8.0625 88.0925,7.87583333 88.5925,7.5025 L88.5925,7.5025 C89.2191667,7.0025 89.5158333,6.23583333 89.4825,5.2025 L89.4825,5.2025 Z"></path>
                        </g>
                    </g>
                </g>
            </g>
        </g>
    </g>
</svg>